<svg width="1844" height="400" viewBox="0 0 1844 400" fill="none" xmlns="http://www.w3.org/2000/svg">
<g clip-path="url(#clip0_31_53)">
<path fill-rule="evenodd" clip-rule="evenodd" d="M120.785 16H154.692V75.118L192.692 75.118C273.088 75.118 338.262 140.371 338.262 220.864V232.571H371V266.52H338.262V325.638H304.354L304.354 220.864C304.354 159.12 254.361 109.067 192.692 109.067L154.692 109.067V132.48H197.954C242.833 132.48 279.215 168.906 279.215 213.841L279.215 383H245.308V323.882H207.308C126.912 323.882 61.7384 258.629 61.7384 178.136V166.429H29L29 132.48H61.7384V73.362H95.6461V178.136C95.6461 239.88 145.639 289.933 207.308 289.933H245.308V266.52H202.046C157.167 266.52 120.785 230.094 120.785 185.159V16ZM154.692 166.429V185.159C154.692 211.344 175.893 232.571 202.046 232.571H245.308V213.841C245.308 187.656 224.107 166.429 197.954 166.429L154.692 166.429Z" fill="url(#paint0_linear_31_53)"/>
<path d="M494.708 201.996V197.504C494.708 182.23 495.457 169.428 496.954 159.096C498.451 148.689 501.035 140.229 504.703 133.715C508.372 127.201 513.351 122.222 519.64 118.778C526.004 115.334 533.977 113.013 543.561 111.815C553.144 110.543 564.674 109.906 578.15 109.906H623.409C638.832 109.906 651.822 110.655 662.379 112.152C673.01 113.575 681.546 116.457 687.984 120.8C694.498 125.067 699.215 131.394 702.135 139.779C705.055 148.09 706.515 159.133 706.515 172.909H684.952C684.952 162.053 683.979 153.63 682.032 147.641C680.086 141.576 676.791 137.196 672.149 134.501C667.582 131.806 661.331 130.159 653.395 129.56C645.458 128.886 635.463 128.549 623.409 128.549H578.15C567.444 128.549 558.422 128.886 551.085 129.56C543.748 130.159 537.758 131.618 533.116 133.939C528.549 136.186 525.03 139.779 522.56 144.721C520.164 149.662 518.517 156.4 517.618 164.936C516.72 173.471 516.271 184.327 516.271 197.504V201.996C516.271 214.724 516.72 225.281 517.618 233.666C518.517 242.051 520.164 248.752 522.56 253.769C525.03 258.785 528.549 262.528 533.116 264.999C537.758 267.47 543.748 269.079 551.085 269.828C558.422 270.577 567.444 270.951 578.15 270.951H623.409C635.463 270.951 645.458 270.689 653.395 270.165C661.331 269.641 667.582 268.106 672.149 265.561C676.791 263.015 680.086 258.785 682.032 252.87C683.979 246.881 684.952 238.495 684.952 227.714H706.515C706.515 241.49 705.055 252.496 702.135 260.731C699.215 268.967 694.498 275.181 687.984 279.374C681.546 283.492 673.01 286.225 662.379 287.572C651.822 288.92 638.832 289.594 623.409 289.594H578.15C561.305 289.594 547.454 288.433 536.598 286.112C525.742 283.866 517.244 279.674 511.104 273.534C505.04 267.395 500.772 258.56 498.302 247.03C495.906 235.5 494.708 220.489 494.708 201.996ZM763.601 286V113.5H785.164V286H763.601ZM849.438 113.5H964.887C981.733 113.5 995.284 114.249 1005.54 115.746C1015.87 117.243 1023.7 119.826 1029.01 123.495C1034.33 127.164 1037.92 132.18 1039.79 138.544C1041.67 144.908 1042.6 152.956 1042.6 162.689V167.182C1042.6 176.166 1041.52 183.915 1039.35 190.429C1037.25 196.868 1033.17 202.108 1027.1 206.151C1021.04 210.119 1012.06 212.927 1000.15 214.574L1037.66 286H1016.1L979.375 216.146C977.877 216.221 976.305 216.259 974.658 216.259C973.086 216.259 971.438 216.259 969.716 216.259H871.001V286H849.438V113.5ZM871.001 197.616H966.347C979.15 197.616 989.22 197.204 996.557 196.381C1003.97 195.482 1009.4 193.948 1012.84 191.776C1016.36 189.605 1018.61 186.535 1019.58 182.567C1020.55 178.599 1021.04 173.471 1021.04 167.182V162.689C1021.04 155.577 1020.37 149.962 1019.02 145.844C1017.67 141.726 1014.98 138.694 1010.93 136.747C1006.89 134.8 1000.86 133.565 992.851 133.041C984.84 132.442 974.134 132.143 960.732 132.143H871.001V197.616ZM1096.99 201.996V197.504C1096.99 182.23 1097.74 169.428 1099.24 159.096C1100.74 148.689 1103.32 140.229 1106.99 133.715C1110.66 127.201 1115.64 122.222 1121.93 118.778C1128.29 115.334 1136.26 113.013 1145.85 111.815C1155.43 110.543 1166.96 109.906 1180.44 109.906H1225.69C1241.12 109.906 1254.11 110.655 1264.66 112.152C1275.3 113.575 1283.83 116.457 1290.27 120.8C1296.78 125.067 1301.5 131.394 1304.42 139.779C1307.34 148.09 1308.8 159.133 1308.8 172.909H1287.24C1287.24 162.053 1286.26 153.63 1284.32 147.641C1282.37 141.576 1279.08 137.196 1274.43 134.501C1269.87 131.806 1263.62 130.159 1255.68 129.56C1247.74 128.886 1237.75 128.549 1225.69 128.549H1180.44C1169.73 128.549 1160.71 128.886 1153.37 129.56C1146.03 130.159 1140.04 131.618 1135.4 133.939C1130.83 136.186 1127.32 139.779 1124.85 144.721C1122.45 149.662 1120.8 156.4 1119.9 164.936C1119.01 173.471 1118.56 184.327 1118.56 197.504V201.996C1118.56 214.724 1119.01 225.281 1119.9 233.666C1120.8 242.051 1122.45 248.752 1124.85 253.769C1127.32 258.785 1130.83 262.528 1135.4 264.999C1140.04 267.47 1146.03 269.079 1153.37 269.828C1160.71 270.577 1169.73 270.951 1180.44 270.951H1225.69C1237.75 270.951 1247.74 270.689 1255.68 270.165C1263.62 269.641 1269.87 268.106 1274.43 265.561C1279.08 263.015 1282.37 258.785 1284.32 252.87C1286.26 246.881 1287.24 238.495 1287.24 227.714H1308.8C1308.8 241.49 1307.34 252.496 1304.42 260.731C1301.5 268.967 1296.78 275.181 1290.27 279.374C1283.83 283.492 1275.3 286.225 1264.66 287.572C1254.11 288.92 1241.12 289.594 1225.69 289.594H1180.44C1163.59 289.594 1149.74 288.433 1138.88 286.112C1128.03 283.866 1119.53 279.674 1113.39 273.534C1107.33 267.395 1103.06 258.56 1100.59 247.03C1098.19 235.5 1096.99 220.489 1096.99 201.996ZM1443.04 289.594C1426.19 289.594 1412.34 288.433 1401.49 286.112C1390.63 283.866 1382.13 279.674 1375.99 273.534C1369.93 267.395 1365.66 258.56 1363.19 247.03C1360.8 235.5 1359.6 220.489 1359.6 201.996V113.5H1381.16V201.996C1381.16 214.724 1381.61 225.281 1382.51 233.666C1383.41 242.051 1385.09 248.752 1387.56 253.769C1390.03 258.785 1393.55 262.528 1398.12 264.999C1402.76 267.47 1408.75 269.079 1416.09 269.828C1423.42 270.577 1432.41 270.951 1443.04 270.951H1483.69C1494.4 270.951 1503.39 270.577 1510.65 269.828C1517.98 269.079 1523.94 267.47 1528.5 264.999C1533.15 262.528 1536.7 258.785 1539.17 253.769C1541.64 248.752 1543.33 242.051 1544.23 233.666C1545.13 225.281 1545.57 214.724 1545.57 201.996V113.5H1567.14V201.996C1567.14 220.489 1565.9 235.5 1563.43 247.03C1561.04 258.56 1556.77 267.395 1550.63 273.534C1544.56 279.674 1536.1 283.866 1525.25 286.112C1514.39 288.433 1500.54 289.594 1483.69 289.594H1443.04ZM1808.29 236.137C1808.29 229.473 1807.77 224.232 1806.72 220.414C1805.67 216.596 1803.31 213.788 1799.64 211.991C1795.97 210.119 1790.28 208.922 1782.57 208.397C1774.86 207.799 1764.31 207.387 1750.9 207.162L1688.46 206.264C1673.04 206.039 1660.65 205.103 1651.29 203.456C1641.93 201.809 1634.86 199.226 1630.06 195.707C1625.27 192.113 1622.05 187.322 1620.41 181.332C1618.83 175.342 1618.05 167.855 1618.05 158.871C1618.05 149.063 1619.13 140.977 1621.3 134.613C1623.55 128.249 1627.56 123.271 1633.32 119.677C1639.16 116.083 1647.4 113.575 1658.03 112.152C1668.66 110.655 1682.4 109.906 1699.24 109.906H1747.31C1762.58 109.906 1775.31 110.393 1785.49 111.366C1795.68 112.34 1803.76 114.586 1809.75 118.104C1815.74 121.623 1820.01 127.089 1822.55 134.501C1825.17 141.913 1826.48 152.095 1826.48 165.048H1804.92C1804.92 155.015 1803.95 147.453 1802 142.362C1800.13 137.196 1796.99 133.677 1792.57 131.806C1788.23 129.934 1782.35 128.923 1774.94 128.773C1767.52 128.624 1758.32 128.549 1747.31 128.549H1700.37C1686.96 128.549 1676.22 128.811 1668.13 129.335C1660.12 129.859 1654.06 131.057 1649.94 132.929C1645.82 134.8 1643.05 137.795 1641.63 141.913C1640.28 146.031 1639.61 151.684 1639.61 158.871C1639.61 164.936 1640.1 169.802 1641.07 173.471C1642.04 177.139 1644.21 179.947 1647.58 181.894C1651.03 183.765 1656.31 185.076 1663.42 185.824C1670.53 186.498 1680.23 186.91 1692.5 187.06L1759.44 187.958C1775.16 188.183 1787.7 189.118 1797.06 190.766C1806.49 192.338 1813.53 194.921 1818.17 198.515C1822.89 202.108 1826 206.975 1827.5 213.114C1829.07 219.179 1829.85 226.853 1829.85 236.137C1829.85 246.244 1828.88 254.742 1826.93 261.63C1825.06 268.443 1821.39 273.909 1815.93 278.026C1810.46 282.144 1802.56 285.102 1792.23 286.898C1781.9 288.695 1768.31 289.594 1751.46 289.594H1698.91C1683.56 289.594 1670.68 288.92 1660.27 287.572C1649.87 286.225 1641.56 283.529 1635.34 279.486C1629.2 275.368 1624.79 269.267 1622.09 261.181C1619.39 253.095 1618.05 242.313 1618.05 228.837H1639.61C1639.61 239.394 1640.47 247.554 1642.19 253.319C1643.91 259.084 1646.91 263.24 1651.18 265.785C1655.52 268.256 1661.55 269.753 1669.26 270.277C1677.04 270.727 1686.93 270.951 1698.91 270.951H1750.34C1763.74 270.951 1774.34 270.539 1782.12 269.716C1789.91 268.817 1795.68 267.17 1799.42 264.774C1803.16 262.304 1805.56 258.785 1806.61 254.218C1807.73 249.651 1808.29 243.624 1808.29 236.137Z" fill="white"/>
</g>
<defs>
<linearGradient id="paint0_linear_31_53" x1="172.402" y1="0.30236" x2="200.016" y2="382.999" gradientUnits="userSpaceOnUse">
<stop stop-color="#718BF2"/>
<stop offset="1" stop-color="#26AFC7"/>
</linearGradient>
<clipPath id="clip0_31_53">
<rect width="1844" height="400" fill="white"/>
</clipPath>
</defs>
</svg>
