<svg width="500" height="500" viewBox="0 0 500 500" fill="none" xmlns="http://www.w3.org/2000/svg">
<path fill-rule="evenodd" clip-rule="evenodd" d="M170.785 66H204.692V125.118L242.692 125.118C323.088 125.118 388.262 190.371 388.262 270.864V282.571H421V316.52H388.262V375.638H354.354L354.354 270.864C354.354 209.12 304.361 159.067 242.692 159.067L204.692 159.067V182.48H247.954C292.833 182.48 329.215 218.906 329.215 263.841L329.215 433H295.308V373.882H257.308C176.912 373.882 111.738 308.629 111.738 228.136V216.429H79L79 182.48H111.738V123.362H145.646V228.136C145.646 289.88 195.639 339.933 257.308 339.933H295.308V316.52H252.046C207.167 316.52 170.785 280.094 170.785 235.159V66ZM204.692 216.429V235.159C204.692 261.344 225.893 282.571 252.046 282.571H295.308V263.841C295.308 237.656 274.107 216.429 247.954 216.429L204.692 216.429Z" fill="url(#paint0_linear_31_73)"/>
<defs>
<linearGradient id="paint0_linear_31_73" x1="222.402" y1="50.3024" x2="250.016" y2="432.999" gradientUnits="userSpaceOnUse">
<stop stop-color="#718BF2"/>
<stop offset="1" stop-color="#26AFC7"/>
</linearGradient>
</defs>
</svg>
